<svg width="234" height="73" viewBox="0 0 234 73" fill="none" xmlns="http://www.w3.org/2000/svg">
<path d="M10.5 10.5H220.5V62.5H10.5V10.5Z" fill="black" stroke="white"/>
<path d="M51.265 22.7782C50.3834 22.5199 49.468 22.3955 48.5494 22.4093C44.154 22.4093 39 26.2936 39 34.6903C39 42.3903 44.4037 51.2132 47.7106 52.6157C48.4623 52.9366 49.3858 53.1359 50.1948 53.058C51.815 52.8976 53.284 52.0932 54.8308 51.6326C55.3533 51.5455 55.9767 51.463 56.4785 51.4607C57.0285 51.4561 57.6473 51.5982 58.2523 51.7357C59.8908 52.1116 61.7013 53.2253 63.42 53.058C64.0319 52.9984 64.8706 52.6295 65.1296 52.5103L65.29 52.4416C67.2379 51.6555 69.8458 48.257 71.6127 43.9555C71.984 43.048 71.4935 42.0466 70.6869 41.4874C68.3975 39.897 66.8758 37.0553 66.8758 34.1655C66.8758 31.9449 67.5931 29.9168 68.9544 28.3836L69.0002 28.3309C69.3277 27.9347 69.6718 27.5524 70.0315 27.1851C70.6158 26.6168 70.7785 25.707 70.2194 25.1134C68.3677 23.1564 66.021 22.187 63.8852 22.187C63.0269 22.1736 62.1717 22.2942 61.3506 22.5445C61.0344 22.6201 59.5677 22.9845 58.5502 23.358C57.9613 23.5207 57.095 23.7407 56.694 23.8393C56.5504 23.8771 56.4024 23.8949 56.254 23.892C54.5696 23.837 52.8852 23.1976 51.265 22.7759V22.7782Z" fill="white" stroke="white" stroke-width="1.5" stroke-linejoin="round"/>
<path d="M59.8773 16.8153C58.1975 18.8274 55.3513 19.2147 55.3513 19.2147C55.3513 19.2147 55.2367 16.3364 56.9188 14.322C58.6008 12.3076 61.4471 11.9249 61.4471 11.9249C61.4471 11.9249 61.5617 14.8033 59.8796 16.8153H59.8773Z" fill="white"/>
<path d="M89.1133 24.5H85.9712V14.3182H89.2525C90.2402 14.3182 91.0853 14.522 91.788 14.9297C92.4906 15.334 93.0292 15.9157 93.4038 16.6747C93.7783 17.4304 93.9656 18.3352 93.9656 19.3892C93.9656 20.4498 93.7766 21.3629 93.3988 22.1286C93.021 22.8909 92.4708 23.4775 91.7482 23.8885C91.0257 24.2962 90.1474 24.5 89.1133 24.5ZM87.2042 23.4062H89.0337C89.8756 23.4062 90.5733 23.2438 91.1268 22.919C91.6803 22.5942 92.0929 22.1319 92.3647 21.532C92.6365 20.9321 92.7724 20.2178 92.7724 19.3892C92.7724 18.5672 92.6381 17.8596 92.3697 17.2663C92.1012 16.6697 91.7002 16.2124 91.1665 15.8942C90.6329 15.5727 89.9684 15.4119 89.1729 15.4119H87.2042V23.4062ZM98.9769 24.6591C98.2875 24.6591 97.6826 24.495 97.1623 24.1669C96.6452 23.8388 96.2409 23.3797 95.9492 22.7898C95.6609 22.1998 95.5167 21.5104 95.5167 20.7216C95.5167 19.9261 95.6609 19.2318 95.9492 18.6385C96.2409 18.0452 96.6452 17.5845 97.1623 17.2564C97.6826 16.9283 98.2875 16.7642 98.9769 16.7642C99.6663 16.7642 100.27 16.9283 100.787 17.2564C101.307 17.5845 101.711 18.0452 102 18.6385C102.291 19.2318 102.437 19.9261 102.437 20.7216C102.437 21.5104 102.291 22.1998 102 22.7898C101.711 23.3797 101.307 23.8388 100.787 24.1669C100.27 24.495 99.6663 24.6591 98.9769 24.6591ZM98.9769 23.6051C99.5006 23.6051 99.9315 23.4709 100.27 23.2024C100.608 22.9339 100.858 22.581 101.02 22.1435C101.183 21.706 101.264 21.232 101.264 20.7216C101.264 20.2112 101.183 19.7356 101.02 19.2947C100.858 18.8539 100.608 18.4976 100.27 18.2259C99.9315 17.9541 99.5006 17.8182 98.9769 17.8182C98.4532 17.8182 98.0224 17.9541 97.6843 18.2259C97.3462 18.4976 97.096 18.8539 96.9336 19.2947C96.7712 19.7356 96.69 20.2112 96.69 20.7216C96.69 21.232 96.7712 21.706 96.9336 22.1435C97.096 22.581 97.3462 22.9339 97.6843 23.2024C98.0224 23.4709 98.4532 23.6051 98.9769 23.6051ZM105.699 24.5L103.372 16.8636H104.605L106.255 22.7102H106.335L107.966 16.8636H109.218L110.829 22.6903H110.909L112.559 16.8636H113.792L111.466 24.5H110.312L108.642 18.6335H108.522L106.852 24.5H105.699ZM116.517 19.9062V24.5H115.343V16.8636H116.477V18.0568H116.576C116.755 17.669 117.027 17.3575 117.392 17.1222C117.756 16.8835 118.227 16.7642 118.804 16.7642C119.321 16.7642 119.773 16.8703 120.161 17.0824C120.549 17.2912 120.85 17.6094 121.066 18.0369C121.281 18.4612 121.389 18.9981 121.389 19.6477V24.5H120.216V19.7273C120.216 19.1274 120.06 18.66 119.748 18.3253C119.437 17.9872 119.009 17.8182 118.466 17.8182C118.091 17.8182 117.756 17.8994 117.461 18.0618C117.17 18.2242 116.939 18.4612 116.77 18.7727C116.601 19.0843 116.517 19.4621 116.517 19.9062ZM124.706 14.3182V24.5H123.533V14.3182H124.706ZM129.957 24.6591C129.268 24.6591 128.663 24.495 128.143 24.1669C127.626 23.8388 127.221 23.3797 126.93 22.7898C126.641 22.1998 126.497 21.5104 126.497 20.7216C126.497 19.9261 126.641 19.2318 126.93 18.6385C127.221 18.0452 127.626 17.5845 128.143 17.2564C128.663 16.9283 129.268 16.7642 129.957 16.7642C130.647 16.7642 131.25 16.9283 131.767 17.2564C132.287 17.5845 132.692 18.0452 132.98 18.6385C133.272 19.2318 133.418 19.9261 133.418 20.7216C133.418 21.5104 133.272 22.1998 132.98 22.7898C132.692 23.3797 132.287 23.8388 131.767 24.1669C131.25 24.495 130.647 24.6591 129.957 24.6591ZM129.957 23.6051C130.481 23.6051 130.912 23.4709 131.25 23.2024C131.588 22.9339 131.838 22.581 132.001 22.1435C132.163 21.706 132.244 21.232 132.244 20.7216C132.244 20.2112 132.163 19.7356 132.001 19.2947C131.838 18.8539 131.588 18.4976 131.25 18.2259C130.912 17.9541 130.481 17.8182 129.957 17.8182C129.434 17.8182 129.003 17.9541 128.665 18.2259C128.327 18.4976 128.076 18.8539 127.914 19.2947C127.752 19.7356 127.67 20.2112 127.67 20.7216C127.67 21.232 127.752 21.706 127.914 22.1435C128.076 22.581 128.327 22.9339 128.665 23.2024C129.003 23.4709 129.434 23.6051 129.957 23.6051ZM137.456 24.679C136.972 24.679 136.533 24.5878 136.138 24.4055C135.744 24.2199 135.431 23.9531 135.199 23.6051C134.967 23.2538 134.851 22.8295 134.851 22.3324C134.851 21.8949 134.937 21.5402 135.109 21.2685C135.282 20.9934 135.512 20.7779 135.8 20.6222C136.089 20.4664 136.407 20.3504 136.755 20.2741C137.106 20.1946 137.459 20.1316 137.814 20.0852C138.278 20.0256 138.654 19.9808 138.942 19.951C139.234 19.9179 139.446 19.8632 139.579 19.7869C139.715 19.7107 139.782 19.5781 139.782 19.3892V19.3494C139.782 18.8589 139.648 18.4777 139.38 18.206C139.115 17.9342 138.712 17.7983 138.172 17.7983C137.612 17.7983 137.172 17.9209 136.854 18.1662C136.536 18.4115 136.312 18.6733 136.183 18.9517L135.069 18.554C135.268 18.09 135.533 17.7287 135.865 17.4702C136.2 17.2083 136.564 17.026 136.959 16.9233C137.356 16.8172 137.747 16.7642 138.132 16.7642C138.377 16.7642 138.659 16.794 138.977 16.8537C139.299 16.91 139.608 17.0277 139.907 17.2067C140.208 17.3857 140.459 17.6558 140.657 18.017C140.856 18.3783 140.956 18.8622 140.956 19.4688V24.5H139.782V23.4659H139.723C139.643 23.6316 139.511 23.8089 139.325 23.9979C139.14 24.1868 138.893 24.3475 138.584 24.4801C138.276 24.6127 137.9 24.679 137.456 24.679ZM137.635 23.625C138.099 23.625 138.49 23.5339 138.808 23.3516C139.13 23.1693 139.372 22.9339 139.534 22.6456C139.7 22.3572 139.782 22.054 139.782 21.7358V20.6619C139.733 20.7216 139.623 20.7763 139.454 20.826C139.289 20.8724 139.096 20.9138 138.878 20.9503C138.662 20.9834 138.452 21.0133 138.246 21.0398C138.044 21.063 137.88 21.0829 137.754 21.0994C137.449 21.1392 137.164 21.2038 136.899 21.2933C136.637 21.3795 136.425 21.5104 136.263 21.6861C136.104 21.8584 136.024 22.0937 136.024 22.392C136.024 22.7997 136.175 23.108 136.476 23.3168C136.781 23.5223 137.167 23.625 137.635 23.625ZM145.981 24.6591C145.344 24.6591 144.783 24.4983 144.295 24.1768C143.808 23.852 143.427 23.3946 143.152 22.8047C142.877 22.2114 142.739 21.5104 142.739 20.7017C142.739 19.8996 142.877 19.2036 143.152 18.6136C143.427 18.0237 143.81 17.5679 144.3 17.2464C144.791 16.925 145.358 16.7642 146.001 16.7642C146.498 16.7642 146.891 16.8471 147.179 17.0128C147.471 17.1752 147.693 17.3608 147.845 17.5696C148.001 17.7751 148.122 17.9441 148.208 18.0767H148.308V14.3182H149.481V24.5H148.347V23.3267H148.208C148.122 23.4659 147.999 23.6416 147.84 23.8537C147.681 24.0625 147.454 24.2498 147.159 24.4155C146.864 24.5779 146.471 24.6591 145.981 24.6591ZM146.14 23.6051C146.611 23.6051 147.008 23.4825 147.333 23.2372C147.658 22.9886 147.905 22.6456 148.074 22.2081C148.243 21.7673 148.327 21.2585 148.327 20.6818C148.327 20.1117 148.245 19.6129 148.079 19.1854C147.913 18.7545 147.668 18.4197 147.343 18.1811C147.018 17.9392 146.617 17.8182 146.14 17.8182C145.643 17.8182 145.228 17.9458 144.897 18.201C144.569 18.4529 144.322 18.7959 144.156 19.2301C143.994 19.661 143.913 20.1449 143.913 20.6818C143.913 21.2254 143.996 21.7192 144.161 22.1634C144.33 22.6042 144.579 22.9555 144.907 23.2173C145.238 23.4759 145.649 23.6051 146.14 23.6051ZM158.832 24.6591C158.143 24.6591 157.538 24.495 157.018 24.1669C156.501 23.8388 156.096 23.3797 155.805 22.7898C155.516 22.1998 155.372 21.5104 155.372 20.7216C155.372 19.9261 155.516 19.2318 155.805 18.6385C156.096 18.0452 156.501 17.5845 157.018 17.2564C157.538 16.9283 158.143 16.7642 158.832 16.7642C159.522 16.7642 160.125 16.9283 160.642 17.2564C161.162 17.5845 161.567 18.0452 161.855 18.6385C162.147 19.2318 162.293 19.9261 162.293 20.7216C162.293 21.5104 162.147 22.1998 161.855 22.7898C161.567 23.3797 161.162 23.8388 160.642 24.1669C160.125 24.495 159.522 24.6591 158.832 24.6591ZM158.832 23.6051C159.356 23.6051 159.787 23.4709 160.125 23.2024C160.463 22.9339 160.713 22.581 160.876 22.1435C161.038 21.706 161.119 21.232 161.119 20.7216C161.119 20.2112 161.038 19.7356 160.876 19.2947C160.713 18.8539 160.463 18.4976 160.125 18.2259C159.787 17.9541 159.356 17.8182 158.832 17.8182C158.309 17.8182 157.878 17.9541 157.54 18.2259C157.202 18.4976 156.951 18.8539 156.789 19.2947C156.627 19.7356 156.545 20.2112 156.545 20.7216C156.545 21.232 156.627 21.706 156.789 22.1435C156.951 22.581 157.202 22.9339 157.54 23.2024C157.878 23.4709 158.309 23.6051 158.832 23.6051ZM165.257 19.9062V24.5H164.084V16.8636H165.217V18.0568H165.317C165.496 17.669 165.767 17.3575 166.132 17.1222C166.497 16.8835 166.967 16.7642 167.544 16.7642C168.061 16.7642 168.513 16.8703 168.901 17.0824C169.289 17.2912 169.59 17.6094 169.806 18.0369C170.021 18.4612 170.129 18.9981 170.129 19.6477V24.5H168.956V19.7273C168.956 19.1274 168.8 18.66 168.488 18.3253C168.177 17.9872 167.749 17.8182 167.206 17.8182C166.831 17.8182 166.497 17.8994 166.202 18.0618C165.91 18.2242 165.68 18.4612 165.51 18.7727C165.341 19.0843 165.257 19.4621 165.257 19.9062ZM175.813 15.4119V14.3182H183.449V15.4119H180.248V24.5H179.015V15.4119H175.813ZM186.366 19.9062V24.5H185.193V14.3182H186.366V18.0568H186.466C186.645 17.6624 186.913 17.3492 187.271 17.1172C187.632 16.8819 188.113 16.7642 188.713 16.7642C189.233 16.7642 189.689 16.8686 190.08 17.0774C190.471 17.2829 190.774 17.5994 190.99 18.027C191.209 18.4512 191.318 18.9915 191.318 19.6477V24.5H190.145V19.7273C190.145 19.1207 189.987 18.6518 189.672 18.3203C189.361 17.9856 188.928 17.8182 188.375 17.8182C187.99 17.8182 187.646 17.8994 187.341 18.0618C187.039 18.2242 186.8 18.4612 186.625 18.7727C186.452 19.0843 186.366 19.4621 186.366 19.9062ZM196.666 24.6591C195.93 24.6591 195.296 24.4967 194.762 24.1719C194.232 23.8438 193.822 23.3864 193.534 22.7997C193.249 22.2098 193.107 21.5237 193.107 20.7415C193.107 19.9593 193.249 19.2699 193.534 18.6733C193.822 18.0734 194.223 17.6061 194.737 17.2713C195.254 16.9332 195.857 16.7642 196.547 16.7642C196.945 16.7642 197.337 16.8305 197.725 16.9631C198.113 17.0956 198.466 17.3111 198.784 17.6094C199.102 17.9044 199.356 18.2955 199.545 18.7827C199.734 19.2699 199.828 19.8698 199.828 20.5824V21.0795H193.942V20.0653H198.635C198.635 19.6345 198.549 19.25 198.376 18.9119C198.207 18.5739 197.965 18.3071 197.651 18.1115C197.339 17.916 196.971 17.8182 196.547 17.8182C196.08 17.8182 195.675 17.9342 195.334 18.1662C194.996 18.3949 194.736 18.6932 194.553 19.0611C194.371 19.429 194.28 19.8234 194.28 20.2443V20.9205C194.28 21.4972 194.379 21.986 194.578 22.3871C194.78 22.7848 195.06 23.0881 195.418 23.2969C195.776 23.5024 196.192 23.6051 196.666 23.6051C196.974 23.6051 197.253 23.562 197.501 23.4759C197.753 23.3864 197.97 23.2538 198.153 23.0781C198.335 22.8991 198.476 22.6771 198.575 22.4119L199.709 22.7301C199.589 23.1146 199.389 23.4527 199.107 23.7443C198.826 24.0327 198.478 24.258 198.063 24.4205C197.649 24.5795 197.183 24.6591 196.666 24.6591Z" fill="white"/>
<path d="M91.5291 49.5H88.2337L93.255 34.9545H97.218L102.232 49.5H98.9368L95.2933 38.2784H95.1797L91.5291 49.5ZM91.3232 43.7827H99.1072V46.1832H91.3232V43.7827ZM103.926 53.5909V38.5909H106.909V40.4233H107.044C107.177 40.1297 107.368 39.8314 107.619 39.5284C107.875 39.2206 108.206 38.965 108.614 38.7614C109.026 38.553 109.537 38.4489 110.148 38.4489C110.943 38.4489 111.677 38.6572 112.349 39.0739C113.022 39.4858 113.559 40.1084 113.962 40.9418C114.364 41.7704 114.565 42.8097 114.565 44.0597C114.565 45.2765 114.369 46.304 113.976 47.142C113.588 47.9754 113.057 48.6075 112.385 49.0384C111.717 49.4645 110.969 49.6776 110.141 49.6776C109.554 49.6776 109.054 49.5805 108.642 49.3864C108.235 49.1922 107.901 48.9484 107.641 48.6548C107.38 48.3565 107.181 48.0559 107.044 47.7528H106.952V53.5909H103.926ZM106.888 44.0455C106.888 44.6941 106.978 45.2599 107.158 45.7429C107.338 46.2259 107.598 46.6023 107.939 46.8722C108.28 47.1373 108.694 47.2699 109.182 47.2699C109.674 47.2699 110.091 47.1349 110.432 46.8651C110.773 46.5904 111.031 46.2116 111.206 45.7287C111.386 45.241 111.476 44.6799 111.476 44.0455C111.476 43.4157 111.388 42.8617 111.213 42.3835C111.038 41.9053 110.78 41.5312 110.439 41.2614C110.098 40.9915 109.679 40.8565 109.182 40.8565C108.689 40.8565 108.273 40.9867 107.932 41.2472C107.596 41.5076 107.338 41.8769 107.158 42.3551C106.978 42.8333 106.888 43.3968 106.888 44.0455ZM116.582 53.5909V38.5909H119.565V40.4233H119.7C119.833 40.1297 120.025 39.8314 120.276 39.5284C120.531 39.2206 120.863 38.965 121.27 38.7614C121.682 38.553 122.193 38.4489 122.804 38.4489C123.599 38.4489 124.333 38.6572 125.006 39.0739C125.678 39.4858 126.215 40.1084 126.618 40.9418C127.02 41.7704 127.222 42.8097 127.222 44.0597C127.222 45.2765 127.025 46.304 126.632 47.142C126.244 47.9754 125.714 48.6075 125.041 49.0384C124.374 49.4645 123.625 49.6776 122.797 49.6776C122.21 49.6776 121.71 49.5805 121.298 49.3864C120.891 49.1922 120.557 48.9484 120.297 48.6548C120.036 48.3565 119.838 48.0559 119.7 47.7528H119.608V53.5909H116.582ZM119.544 44.0455C119.544 44.6941 119.634 45.2599 119.814 45.7429C119.994 46.2259 120.254 46.6023 120.595 46.8722C120.936 47.1373 121.35 47.2699 121.838 47.2699C122.33 47.2699 122.747 47.1349 123.088 46.8651C123.429 46.5904 123.687 46.2116 123.862 45.7287C124.042 45.241 124.132 44.6799 124.132 44.0455C124.132 43.4157 124.045 42.8617 123.869 42.3835C123.694 41.9053 123.436 41.5312 123.095 41.2614C122.754 40.9915 122.335 40.8565 121.838 40.8565C121.346 40.8565 120.929 40.9867 120.588 41.2472C120.252 41.5076 119.994 41.8769 119.814 42.3551C119.634 42.8333 119.544 43.3968 119.544 44.0455ZM132.264 34.9545V49.5H129.239V34.9545H132.264ZM139.659 49.7131C138.537 49.7131 137.571 49.4858 136.762 49.0312C135.957 48.572 135.337 47.9233 134.901 47.0852C134.465 46.2424 134.248 45.2457 134.248 44.0952C134.248 42.973 134.465 41.9882 134.901 41.1406C135.337 40.2931 135.95 39.6326 136.74 39.1591C137.536 38.6856 138.469 38.4489 139.539 38.4489C140.258 38.4489 140.928 38.5649 141.549 38.7969C142.174 39.0241 142.718 39.3674 143.182 39.8267C143.651 40.286 144.016 40.8636 144.276 41.5597C144.536 42.2509 144.667 43.0606 144.667 43.9886V44.8196H135.455V42.9446H141.819C141.819 42.509 141.724 42.1231 141.534 41.7869C141.345 41.4508 141.082 41.188 140.746 40.9986C140.415 40.8045 140.029 40.7074 139.588 40.7074C139.129 40.7074 138.722 40.8139 138.367 41.027C138.016 41.2353 137.742 41.517 137.543 41.8722C137.344 42.2225 137.242 42.6132 137.238 43.044V44.8267C137.238 45.3665 137.337 45.8329 137.536 46.2259C137.739 46.6188 138.026 46.9219 138.395 47.1349C138.765 47.348 139.203 47.4545 139.709 47.4545C140.045 47.4545 140.353 47.4072 140.632 47.3125C140.912 47.2178 141.151 47.0758 141.35 46.8864C141.549 46.697 141.7 46.465 141.804 46.1903L144.603 46.375C144.461 47.0473 144.169 47.6345 143.729 48.1364C143.293 48.6335 142.73 49.0218 142.039 49.3011C141.352 49.5758 140.559 49.7131 139.659 49.7131ZM159.217 39.1378C159.161 38.5649 158.917 38.1198 158.486 37.8026C158.055 37.4853 157.47 37.3267 156.732 37.3267C156.23 37.3267 155.806 37.3977 155.46 37.5398C155.115 37.6771 154.849 37.8688 154.665 38.1151C154.485 38.3613 154.395 38.6406 154.395 38.9531C154.385 39.2135 154.44 39.4408 154.558 39.6349C154.681 39.8291 154.849 39.9972 155.062 40.1392C155.276 40.2765 155.522 40.3973 155.801 40.5014C156.08 40.6009 156.379 40.6861 156.696 40.7571L158.003 41.0696C158.637 41.2116 159.22 41.401 159.75 41.6378C160.28 41.8745 160.74 42.1657 161.128 42.5114C161.516 42.857 161.817 43.2642 162.03 43.733C162.248 44.2017 162.359 44.7391 162.364 45.3452C162.359 46.2353 162.132 47.0071 161.682 47.6605C161.237 48.3092 160.593 48.8134 159.75 49.1733C158.912 49.5284 157.901 49.706 156.717 49.706C155.543 49.706 154.52 49.526 153.649 49.1662C152.783 48.8063 152.106 48.2737 151.618 47.5682C151.135 46.858 150.882 45.9796 150.858 44.9332H153.834C153.867 45.4209 154.007 45.8281 154.253 46.1548C154.504 46.4768 154.838 46.7206 155.254 46.8864C155.676 47.0473 156.152 47.1278 156.682 47.1278C157.203 47.1278 157.655 47.0521 158.038 46.9006C158.427 46.7491 158.727 46.5384 158.94 46.2685C159.153 45.9986 159.26 45.6884 159.26 45.3381C159.26 45.0114 159.163 44.7367 158.969 44.5142C158.779 44.2917 158.5 44.1023 158.131 43.946C157.766 43.7898 157.319 43.6477 156.788 43.5199L155.205 43.1222C153.978 42.8239 153.01 42.3575 152.3 41.723C151.589 41.0885 151.237 40.2339 151.241 39.1591C151.237 38.2784 151.471 37.509 151.945 36.8509C152.423 36.1927 153.079 35.679 153.912 35.3097C154.745 34.9403 155.692 34.7557 156.753 34.7557C157.832 34.7557 158.775 34.9403 159.58 35.3097C160.389 35.679 161.019 36.1927 161.469 36.8509C161.919 37.509 162.151 38.2713 162.165 39.1378H159.217ZM170.178 38.5909V40.8636H163.608V38.5909H170.178ZM165.1 35.9773H168.125V46.1477C168.125 46.4271 168.168 46.6449 168.253 46.8011C168.338 46.9527 168.457 47.0592 168.608 47.1207C168.765 47.1823 168.944 47.2131 169.148 47.2131C169.29 47.2131 169.432 47.2012 169.574 47.1776C169.716 47.1491 169.825 47.1278 169.901 47.1136L170.377 49.3651C170.225 49.4124 170.012 49.4669 169.738 49.5284C169.463 49.5947 169.129 49.6349 168.736 49.6491C168.007 49.6776 167.368 49.5805 166.819 49.358C166.274 49.1354 165.85 48.7898 165.547 48.321C165.244 47.8523 165.095 47.2604 165.1 46.5455V35.9773ZM176.961 49.7131C175.857 49.7131 174.903 49.4787 174.098 49.0099C173.298 48.5365 172.68 47.8783 172.245 47.0355C171.809 46.188 171.591 45.2055 171.591 44.0881C171.591 42.9612 171.809 41.9763 172.245 41.1335C172.68 40.286 173.298 39.6278 174.098 39.1591C174.903 38.6856 175.857 38.4489 176.961 38.4489C178.064 38.4489 179.016 38.6856 179.816 39.1591C180.621 39.6278 181.241 40.286 181.676 41.1335C182.112 41.9763 182.33 42.9612 182.33 44.0881C182.33 45.2055 182.112 46.188 181.676 47.0355C181.241 47.8783 180.621 48.5365 179.816 49.0099C179.016 49.4787 178.064 49.7131 176.961 49.7131ZM176.975 47.3693C177.477 47.3693 177.896 47.2273 178.232 46.9432C178.568 46.6544 178.821 46.2614 178.992 45.7642C179.167 45.267 179.255 44.7012 179.255 44.0668C179.255 43.4323 179.167 42.8665 178.992 42.3693C178.821 41.8722 178.568 41.4792 178.232 41.1903C177.896 40.9015 177.477 40.7571 176.975 40.7571C176.468 40.7571 176.042 40.9015 175.696 41.1903C175.355 41.4792 175.097 41.8722 174.922 42.3693C174.752 42.8665 174.667 43.4323 174.667 44.0668C174.667 44.7012 174.752 45.267 174.922 45.7642C175.097 46.2614 175.355 46.6544 175.696 46.9432C176.042 47.2273 176.468 47.3693 176.975 47.3693ZM184.297 49.5V38.5909H187.23V40.4943H187.344C187.543 39.8172 187.877 39.3059 188.346 38.9602C188.814 38.6098 189.354 38.4347 189.965 38.4347C190.116 38.4347 190.28 38.4441 190.455 38.4631C190.63 38.482 190.784 38.508 190.917 38.5412V41.2259C190.775 41.1832 190.578 41.1454 190.327 41.1122C190.076 41.0791 189.846 41.0625 189.638 41.0625C189.193 41.0625 188.795 41.1596 188.445 41.3537C188.099 41.5431 187.825 41.8082 187.621 42.1491C187.422 42.4901 187.323 42.883 187.323 43.3281V49.5H184.297ZM196.945 49.7131C195.822 49.7131 194.857 49.4858 194.047 49.0312C193.242 48.572 192.622 47.9233 192.186 47.0852C191.75 46.2424 191.533 45.2457 191.533 44.0952C191.533 42.973 191.75 41.9882 192.186 41.1406C192.622 40.2931 193.235 39.6326 194.026 39.1591C194.821 38.6856 195.754 38.4489 196.824 38.4489C197.544 38.4489 198.214 38.5649 198.834 38.7969C199.459 39.0241 200.003 39.3674 200.467 39.8267C200.936 40.286 201.301 40.8636 201.561 41.5597C201.821 42.2509 201.952 43.0606 201.952 43.9886V44.8196H192.74V42.9446H199.104C199.104 42.509 199.009 42.1231 198.82 41.7869C198.63 41.4508 198.367 41.188 198.031 40.9986C197.7 40.8045 197.314 40.7074 196.874 40.7074C196.414 40.7074 196.007 40.8139 195.652 41.027C195.302 41.2353 195.027 41.517 194.828 41.8722C194.629 42.2225 194.527 42.6132 194.523 43.044V44.8267C194.523 45.3665 194.622 45.8329 194.821 46.2259C195.025 46.6188 195.311 46.9219 195.68 47.1349C196.05 47.348 196.488 47.4545 196.994 47.4545C197.33 47.4545 197.638 47.4072 197.918 47.3125C198.197 47.2178 198.436 47.0758 198.635 46.8864C198.834 46.697 198.985 46.465 199.089 46.1903L201.888 46.375C201.746 47.0473 201.455 47.6345 201.014 48.1364C200.579 48.6335 200.015 49.0218 199.324 49.3011C198.637 49.5758 197.844 49.7131 196.945 49.7131Z" fill="white"/>
</svg>
