<svg width="62" height="62" viewBox="0 0 62 62" fill="none" xmlns="http://www.w3.org/2000/svg">
<path d="M24.805 54.3171V35.5259H17.613C17.2396 35.5259 16.8815 35.3776 16.6174 35.1136C16.3534 34.8495 16.2051 34.4914 16.2051 34.118V26.6858C16.2051 26.3124 16.3534 25.9543 16.6174 25.6902C16.8815 25.4262 17.2396 25.2779 17.613 25.2779H24.7766V18.0833C24.6052 16.3771 24.8095 14.6541 25.375 13.0353C25.9405 11.4165 26.8536 9.94119 28.0502 8.7129C29.2467 7.48462 30.6976 6.5332 32.301 5.92546C33.9045 5.31773 35.6215 5.06841 37.3316 5.19503H43.3249C43.7019 5.1943 44.064 5.34177 44.3332 5.60565C44.6024 5.86952 44.757 6.22864 44.7638 6.60553V12.8985C44.7557 13.2748 44.6005 13.6328 44.3316 13.896C44.0626 14.1592 43.7012 14.3065 43.3249 14.3065H39.5791C35.5336 14.3065 34.756 16.2233 34.756 19.0417V25.2753H44.3737C44.5736 25.2687 44.7726 25.3057 44.9567 25.3837C45.1409 25.4618 45.3058 25.579 45.44 25.7273C45.5743 25.8755 45.6746 26.0512 45.734 26.2422C45.7935 26.4332 45.8106 26.6348 45.7842 26.833L44.9137 34.2937C44.8701 34.6354 44.7027 34.9493 44.4432 35.1759C44.1838 35.4025 43.8502 35.5261 43.5057 35.5234H34.8154V54.3145C34.8203 54.6465 34.7585 54.9761 34.6336 55.2838C34.5087 55.5914 34.3233 55.8709 34.0884 56.1055C33.8535 56.3402 33.5739 56.5253 33.2661 56.6499C32.9583 56.7744 32.6287 56.8359 32.2967 56.8307H27.2927C26.9633 56.8318 26.637 56.7672 26.3329 56.6408C26.0287 56.5143 25.7528 56.3286 25.5212 56.0944C25.2896 55.8601 25.107 55.5821 24.984 55.2765C24.861 54.9709 24.8002 54.6465 24.805 54.3171Z" fill="black"/>
</svg>
