<svg width="54" height="54" viewBox="0 0 54 54" fill="none" xmlns="http://www.w3.org/2000/svg">
<path d="M31.102 27.5265C31.066 28.314 30.8095 29.0745 30.3573 29.7202C29.9036 30.3871 29.2507 30.8934 28.492 31.167C27.7409 31.4727 26.9143 31.5417 26.1228 31.365C25.3275 31.1959 24.6015 30.7913 24.0393 30.204C23.4828 29.5896 23.1169 28.8266 22.9863 28.008C22.8404 27.2149 22.94 26.3961 23.272 25.6612C23.596 24.9255 24.127 24.2977 24.8065 23.8612C25.4973 23.4337 26.296 23.2065 27.1105 23.2042C28.1838 23.2627 29.194 23.7262 29.941 24.498C30.3274 24.8994 30.6292 25.3743 30.8286 25.8945C31.0281 26.4147 31.121 26.9697 31.102 27.5265Z" fill="black"/>
<path d="M38.8465 18.0045C38.5907 17.372 38.2103 16.7975 37.7279 16.315C37.2455 15.8326 36.671 15.4522 36.0385 15.1965C35.4013 14.9497 34.7259 14.8164 34.0427 14.8027H20.1782C18.8068 14.8081 17.493 15.3552 16.5233 16.325C15.5535 17.2948 15.0063 18.6085 15.001 19.98V34.1077C15.0029 34.7893 15.1395 35.4637 15.4029 36.0923C15.6662 36.7209 16.0511 37.2913 16.5355 37.7707C17.5049 38.7325 18.8127 39.2762 20.1782 39.285H34.0427C35.064 39.2784 36.0608 38.9724 36.9099 38.4049C37.7589 37.8374 38.4229 37.0333 38.8195 36.0922C39.0823 35.4636 39.2184 34.7892 39.22 34.1077V20.0002C39.2128 19.3183 39.0864 18.6429 38.8465 18.0045ZM33.3632 30.2467C33.0341 31.0687 32.5411 31.8151 31.9142 32.4405C31.2842 33.0772 30.5395 33.588 29.7205 33.9547C28.8333 34.3269 27.8792 34.5133 26.9172 34.5024C25.9552 34.4916 25.0056 34.2837 24.127 33.8917C22.7137 33.2555 21.5546 32.164 20.8347 30.7915C20.1148 29.419 19.8757 27.8448 20.1557 26.3205C20.4238 24.9746 21.071 23.7334 22.021 22.743C22.9884 21.7734 24.2192 21.109 25.5606 20.8322C26.9021 20.5554 28.2953 20.6784 29.5675 21.186C30.8432 21.7035 31.93 22.599 32.6815 23.7532C33.4409 24.8662 33.8535 26.1792 33.8672 27.5265C33.8987 28.4602 33.7255 29.3872 33.3632 30.2467ZM35.7752 19.4085C35.7964 19.5838 35.7801 19.7617 35.7275 19.9303C35.6749 20.0989 35.5871 20.2544 35.4699 20.3865C35.3527 20.5187 35.2089 20.6245 35.0478 20.697C34.8867 20.7694 34.7121 20.8069 34.5355 20.8069C34.3589 20.8069 34.1842 20.7694 34.0232 20.697C33.8621 20.6245 33.7182 20.5187 33.6011 20.3865C33.4839 20.2544 33.3961 20.0989 33.3435 19.9303C33.2908 19.7617 33.2746 19.5838 33.2957 19.4085C33.2694 19.2303 33.2817 19.0486 33.3319 18.8757C33.3821 18.7027 33.469 18.5426 33.5866 18.4063C33.7043 18.2699 33.85 18.1605 34.0137 18.0856C34.1774 18.0106 34.3554 17.9718 34.5355 17.9718C34.7156 17.9718 34.8935 18.0106 35.0573 18.0856C35.221 18.1605 35.3667 18.2699 35.4843 18.4063C35.602 18.5426 35.6888 18.7027 35.739 18.8757C35.7892 19.0486 35.8016 19.2303 35.7752 19.4085Z" fill="black"/>
<path d="M37.9688 5.0625H16.0312C13.1222 5.0625 10.3322 6.21813 8.27517 8.27517C6.21813 10.3322 5.0625 13.1222 5.0625 16.0312V37.9688C5.0625 39.4092 5.34622 40.8355 5.89745 42.1663C6.44868 43.4971 7.25663 44.7063 8.27517 45.7248C10.3322 47.7819 13.1222 48.9375 16.0312 48.9375H37.9688C39.4092 48.9375 40.8355 48.6538 42.1663 48.1026C43.4971 47.5513 44.7063 46.7434 45.7248 45.7248C46.7434 44.7063 47.5513 43.4971 48.1026 42.1663C48.6538 40.8355 48.9375 39.4092 48.9375 37.9688V16.0312C48.9375 14.5908 48.6538 13.1645 48.1026 11.8337C47.5513 10.5029 46.7434 9.29372 45.7248 8.27517C44.7063 7.25663 43.4971 6.44868 42.1663 5.89745C40.8355 5.34622 39.4092 5.0625 37.9688 5.0625ZM42.6195 33.8895C42.642 35.037 42.4238 36.1822 41.9828 37.2442C41.0927 39.3757 39.3982 41.0702 37.2667 41.9603C36.2025 42.4013 35.0618 42.6172 33.9098 42.597H20.4187C19.2685 42.6135 18.1267 42.3977 17.0618 41.9625C16.0068 41.5189 15.0461 40.8782 14.2312 40.0748C13.4242 39.2632 12.7836 38.3017 12.3457 37.2442C11.8813 36.1861 11.6422 35.0428 11.6438 33.8872V20.2905C11.628 19.1401 11.8445 17.9983 12.2805 16.9335C13.1507 14.7931 14.83 13.0824 16.9537 12.1725C18.057 11.7436 19.2357 11.5423 20.4187 11.5807H34.02C35.1603 11.5703 36.2912 11.7881 37.3461 12.2212C38.401 12.6544 39.3586 13.2942 40.1625 14.103C40.9658 14.9175 41.6047 15.8805 42.048 16.9335C42.4867 17.9978 42.705 19.1385 42.6848 20.2905L42.6195 33.8895Z" fill="black"/>
</svg>
