<svg width="207" height="36" viewBox="0 0 207 36" fill="none" xmlns="http://www.w3.org/2000/svg">
<rect width="35" height="36" rx="8" fill="black"/>
<path d="M13.2433 12.34L6.86325 13.265L6.75025 13.288C6.57919 13.3335 6.42325 13.4235 6.29835 13.5488C6.17344 13.6742 6.08406 13.8305 6.03932 14.0018C5.99458 14.173 5.99608 14.3531 6.04368 14.5235C6.09128 14.694 6.18327 14.8488 6.31025 14.972L10.9323 19.471L9.84225 25.826L9.82925 25.936C9.81878 26.113 9.85552 26.2895 9.9357 26.4475C10.0159 26.6056 10.1366 26.7395 10.2856 26.8356C10.4345 26.9316 10.6063 26.9863 10.7834 26.9942C10.9605 27.002 11.1364 26.9626 11.2933 26.88L16.9993 23.88L22.6923 26.88L22.7923 26.926C22.9573 26.9911 23.1367 27.011 23.312 26.9838C23.4873 26.9566 23.6522 26.8833 23.7898 26.7713C23.9275 26.6593 24.0328 26.5128 24.0951 26.3467C24.1574 26.1806 24.1743 26.0009 24.1443 25.826L23.0533 19.471L27.6773 14.971L27.7553 14.886C27.8667 14.7488 27.9397 14.5845 27.967 14.4098C27.9942 14.2352 27.9747 14.0564 27.9103 13.8918C27.846 13.7271 27.7392 13.5825 27.6007 13.4726C27.4623 13.3626 27.2972 13.2914 27.1223 13.266L20.7423 12.34L17.8903 6.56004C17.8077 6.39258 17.68 6.25156 17.5214 6.15295C17.3629 6.05434 17.1799 6.00208 16.9933 6.00208C16.8066 6.00208 16.6236 6.05434 16.4651 6.15295C16.3065 6.25156 16.1788 6.39258 16.0963 6.56004L13.2433 12.34Z" fill="#FFBF00"/>
<rect x="43" width="35" height="36" rx="8" fill="black"/>
<path d="M56.2433 12.34L49.8633 13.265L49.7503 13.288C49.5792 13.3335 49.4232 13.4235 49.2983 13.5488C49.1734 13.6742 49.0841 13.8305 49.0393 14.0018C48.9946 14.173 48.9961 14.3531 49.0437 14.5235C49.0913 14.694 49.1833 14.8488 49.3103 14.972L53.9323 19.471L52.8423 25.826L52.8293 25.936C52.8188 26.113 52.8555 26.2895 52.9357 26.4475C53.0159 26.6056 53.1366 26.7395 53.2856 26.8356C53.4345 26.9316 53.6063 26.9863 53.7834 26.9942C53.9605 27.002 54.1364 26.9626 54.2933 26.88L59.9993 23.88L65.6923 26.88L65.7923 26.926C65.9573 26.9911 66.1367 27.011 66.312 26.9838C66.4873 26.9566 66.6522 26.8833 66.7898 26.7713C66.9275 26.6593 67.0328 26.5128 67.0951 26.3467C67.1574 26.1806 67.1743 26.0009 67.1443 25.826L66.0533 19.471L70.6773 14.971L70.7553 14.886C70.8667 14.7488 70.9397 14.5845 70.967 14.4098C70.9942 14.2352 70.9747 14.0564 70.9103 13.8918C70.846 13.7271 70.7392 13.5825 70.6007 13.4726C70.4623 13.3626 70.2972 13.2914 70.1223 13.266L63.7423 12.34L60.8903 6.56004C60.8077 6.39258 60.68 6.25156 60.5214 6.15295C60.3629 6.05434 60.1799 6.00208 59.9933 6.00208C59.8066 6.00208 59.6236 6.05434 59.4651 6.15295C59.3065 6.25156 59.1788 6.39258 59.0963 6.56004L56.2433 12.34Z" fill="#FFBF00"/>
<rect x="86" width="35" height="36" rx="8" fill="black"/>
<path d="M99.2433 12.34L92.8633 13.265L92.7503 13.288C92.5792 13.3335 92.4232 13.4235 92.2983 13.5488C92.1734 13.6742 92.0841 13.8305 92.0393 14.0018C91.9946 14.173 91.9961 14.3531 92.0437 14.5235C92.0913 14.694 92.1833 14.8488 92.3103 14.972L96.9323 19.471L95.8423 25.826L95.8293 25.936C95.8188 26.113 95.8555 26.2895 95.9357 26.4475C96.0159 26.6056 96.1366 26.7395 96.2856 26.8356C96.4345 26.9316 96.6063 26.9863 96.7834 26.9942C96.9605 27.002 97.1364 26.9626 97.2933 26.88L102.999 23.88L108.692 26.88L108.792 26.926C108.957 26.9911 109.137 27.011 109.312 26.9838C109.487 26.9566 109.652 26.8833 109.79 26.7713C109.927 26.6593 110.033 26.5128 110.095 26.3467C110.157 26.1806 110.174 26.0009 110.144 25.826L109.053 19.471L113.677 14.971L113.755 14.886C113.867 14.7488 113.94 14.5845 113.967 14.4098C113.994 14.2352 113.975 14.0564 113.91 13.8918C113.846 13.7271 113.739 13.5825 113.601 13.4726C113.462 13.3626 113.297 13.2914 113.122 13.266L106.742 12.34L103.89 6.56004C103.808 6.39258 103.68 6.25156 103.521 6.15295C103.363 6.05434 103.18 6.00208 102.993 6.00208C102.807 6.00208 102.624 6.05434 102.465 6.15295C102.307 6.25156 102.179 6.39258 102.096 6.56004L99.2433 12.34Z" fill="#FFBF00"/>
<rect x="129" width="35" height="36" rx="8" fill="black"/>
<path d="M142.243 12.34L135.863 13.265L135.75 13.288C135.579 13.3335 135.423 13.4235 135.298 13.5488C135.173 13.6742 135.084 13.8305 135.039 14.0018C134.995 14.173 134.996 14.3531 135.044 14.5235C135.091 14.694 135.183 14.8488 135.31 14.972L139.932 19.471L138.842 25.826L138.829 25.936C138.819 26.113 138.856 26.2895 138.936 26.4475C139.016 26.6056 139.137 26.7395 139.286 26.8356C139.435 26.9316 139.606 26.9863 139.783 26.9942C139.96 27.002 140.136 26.9626 140.293 26.88L145.999 23.88L151.692 26.88L151.792 26.926C151.957 26.9911 152.137 27.011 152.312 26.9838C152.487 26.9566 152.652 26.8833 152.79 26.7713C152.927 26.6593 153.033 26.5128 153.095 26.3467C153.157 26.1806 153.174 26.0009 153.144 25.826L152.053 19.471L156.677 14.971L156.755 14.886C156.867 14.7488 156.94 14.5845 156.967 14.4098C156.994 14.2352 156.975 14.0564 156.91 13.8918C156.846 13.7271 156.739 13.5825 156.601 13.4726C156.462 13.3626 156.297 13.2914 156.122 13.266L149.742 12.34L146.89 6.56004C146.808 6.39258 146.68 6.25156 146.521 6.15295C146.363 6.05434 146.18 6.00208 145.993 6.00208C145.807 6.00208 145.624 6.05434 145.465 6.15295C145.307 6.25156 145.179 6.39258 145.096 6.56004L142.243 12.34Z" fill="#FFBF00"/>
<rect x="172" width="35" height="36" rx="8" fill="black"/>
<path d="M185.243 12.34L178.863 13.265L178.75 13.288C178.579 13.3335 178.423 13.4235 178.298 13.5488C178.173 13.6742 178.084 13.8305 178.039 14.0018C177.995 14.173 177.996 14.3531 178.044 14.5235C178.091 14.694 178.183 14.8488 178.31 14.972L182.932 19.471L181.842 25.826L181.829 25.936C181.819 26.113 181.856 26.2895 181.936 26.4475C182.016 26.6056 182.137 26.7395 182.286 26.8356C182.435 26.9316 182.606 26.9863 182.783 26.9942C182.96 27.002 183.136 26.9626 183.293 26.88L188.999 23.88L194.692 26.88L194.792 26.926C194.957 26.9911 195.137 27.011 195.312 26.9838C195.487 26.9566 195.652 26.8833 195.79 26.7713C195.927 26.6593 196.033 26.5128 196.095 26.3467C196.157 26.1806 196.174 26.0009 196.144 25.826L195.053 19.471L199.677 14.971L199.755 14.886C199.867 14.7488 199.94 14.5845 199.967 14.4098C199.994 14.2352 199.975 14.0564 199.91 13.8918C199.846 13.7271 199.739 13.5825 199.601 13.4726C199.462 13.3626 199.297 13.2914 199.122 13.266L192.742 12.34L189.89 6.56004C189.808 6.39258 189.68 6.25156 189.521 6.15295C189.363 6.05434 189.18 6.00208 188.993 6.00208C188.807 6.00208 188.624 6.05434 188.465 6.15295C188.307 6.25156 188.179 6.39258 188.096 6.56004L185.243 12.34Z" fill="#FFBF00"/>
</svg>
