<svg width="58" height="58" viewBox="0 0 58 58" fill="none" xmlns="http://www.w3.org/2000/svg">
<path d="M28.9997 4.83337C42.3469 4.83337 53.1664 15.6528 53.1664 29C53.1664 42.3473 42.3469 53.1667 28.9997 53.1667C24.8865 53.1725 20.8403 52.1242 17.2474 50.1217L16.5104 49.6915L9.18303 51.8472C8.78428 51.9647 8.36214 51.9784 7.95661 51.887C7.55108 51.7957 7.1756 51.6023 6.86578 51.3251C6.55595 51.048 6.32204 50.6963 6.18622 50.3034C6.0504 49.9105 6.01718 49.4894 6.08969 49.0801L6.15253 48.8167L8.30819 41.4894C6.02941 37.7224 4.82742 33.4026 4.83303 29C4.83303 15.6528 15.6524 4.83337 28.9997 4.83337ZM28.9997 9.66671C25.5381 9.66608 22.1399 10.5948 19.1598 12.356C16.1798 14.1172 13.7272 16.6461 12.0583 19.6788C10.3894 22.7115 9.56526 26.1366 9.67206 29.5965C9.77886 33.0565 10.8126 36.4242 12.6654 39.3482C13.1439 40.1022 13.3494 41.0302 13.1874 41.951L13.0932 42.3449L12.0274 45.9723L15.6549 44.9065C16.7013 44.5972 17.7888 44.7857 18.6515 45.3343C21.185 46.9384 24.0569 47.9313 27.0401 48.2344C30.0234 48.5374 33.0363 48.1424 35.8406 47.0805C38.6449 46.0186 41.1637 44.319 43.198 42.116C45.2323 39.9129 46.7263 37.2669 47.5618 34.387C48.3973 31.5072 48.5515 28.4724 48.0122 25.5227C47.4729 22.573 46.2548 19.7892 44.4543 17.3913C42.6537 14.9934 40.3201 13.0472 37.6379 11.7066C34.9556 10.3659 31.9983 9.66757 28.9997 9.66671ZM21.9962 17.3614C22.264 17.2467 22.5569 17.2031 22.8465 17.2349C23.1361 17.2666 23.4126 17.3726 23.6492 17.5426C24.8672 18.432 25.8339 19.6258 26.6652 20.7906L27.4554 21.9361L27.8252 22.4799C28.0393 22.7915 28.1445 23.1652 28.1244 23.5428C28.1043 23.9203 27.96 24.2807 27.714 24.5679L27.5328 24.7515L25.2998 26.4094C25.1935 26.4882 25.1189 26.6022 25.0892 26.7311C25.0595 26.86 25.0768 26.9953 25.1379 27.1126C25.6454 28.031 26.5419 29.4012 27.5714 30.4307C28.6034 31.4602 30.0364 32.4172 31.0176 32.9803C31.2303 33.1011 31.4864 33.0625 31.6604 32.9054L31.7523 32.7966L33.2047 30.5854C33.4709 30.2297 33.8648 29.9911 34.3033 29.9199C34.7419 29.8487 35.191 29.9504 35.5561 30.2035L36.8684 31.1195C38.1734 32.0499 39.4276 33.0504 40.4209 34.3191C40.6046 34.5576 40.7214 34.8407 40.7593 35.1394C40.7971 35.438 40.7545 35.7413 40.6359 36.018C39.6789 38.251 37.255 40.153 34.7369 40.0611L34.3526 40.037L33.891 39.9935L33.63 39.9596L33.0549 39.863C30.8219 39.4425 27.2428 38.1761 23.5332 34.469C19.826 30.7594 18.5597 27.1803 18.1392 24.9473L18.0425 24.3721L17.9821 23.8695L17.9507 23.4465L17.941 23.2653C17.8492 20.7423 19.7608 18.3184 21.9962 17.3614Z" fill="black"/>
</svg>
